# AST/ASF file generated using VICON BodyLanguage
# -----------------------------------------------
:version 1.10
:name VICON
:units
  mass 1.0
  length 0.45
  angle deg
:documentation
   .ast/.asf automatically generated from VICON data using
   VICON BodyBuilder and BodyLanguage model FoxedUp or BRILLIANT.MOD
:root
   order TX TY TZ RX RY RZ
   axis XYZ
   position 0 0 0  
   orientation 0 0 0 
:bonedata
  begin
     id 1 
     name lhipjoint
     direction 0.710188 -0.616876 0.339259 
     length 2.5669 
     axis 0 0 0  XYZ
  end
  begin
     id 2 
     name lfemur
     direction 0.34202 -0.939693 0  
     length 7.12796  
     axis 0 0 20  XYZ
    dof rx ry rz
    limits (-160.0 20.0)
           (-70.0 70.0)
           (-60.0 70.0)
  end
  begin
     id 3 
     name ltibia
     direction 0.34202 -0.939693 0   
     length 7.58108   
     axis 0 0 20   XYZ
    dof rx
    limits (-10.0 170.0)
  end
  begin
     id 4 
     name lfoot
     direction 0.0669471 -0.183936 0.980656   
     length 2.17365   
     axis -90 7.62852e-016 20   XYZ
    dof rx rz
    limits (-45.0 90.0)
           (-70.0 20.0)
  end
  begin
     id 5 
     name ltoes
     direction 1.53508e-011 -4.21705e-011 1   
     length 1.09427   
     axis -90 7.62852e-016 20   XYZ
    dof rx
    limits (-90.0 20.0)
  end
  begin
     id 6 
     name rhipjoint
     direction -0.700191 -0.625589 0.34405   
     length 2.53115  
     axis 0 0 0  XYZ 
  end
  begin
     id 7 
     name rfemur
     direction -0.34202 -0.939693 0   
     length 7.33006   
     axis 0 0 -20   XYZ
    dof rx ry rz
    limits (-160.0 20.0)
           (-70.0 70.0)
           (-70.0 60.0)
  end
  begin
     id 8 
     name rtibia
     direction -0.34202 -0.939693 0   
     length 7.64926   
     axis 0 0 -20   XYZ
    dof rx
    limits (-10.0 170.0)
 end
 begin
     id 9 
     name rfoot
     direction -0.0688927 -0.189281 0.979503   
     length 2.20493  
     axis -90 -7.62852e-016 -20   XYZ
    dof rx rz
    limits (-45.0 90.0)
           (-20.0 70.0)
  end
  begin
     id 10 
     name rtoes
     direction -1.53567e-011 -4.21933e-011 1   
     length 1.10919   
     axis -90 -7.62852e-016 -20   XYZ
    dof rx
    limits (-90.0 20.0)
  end
  begin
     id 11 
     name lowerback
     direction -0.0167868 0.989873 -0.140959   
     length 2.14596   
     axis 0 0 0   XYZ
    dof rx ry rz
    limits (-20.0 45.0)
           (-30.0 30.0)
           (-30.0 30.0)
  end
  begin
     id 12 
     name upperback
     direction 0.0129109 0.998033 0.0613525   
     length 2.10457   
     axis 0 0 0   XYZ
    dof rx ry rz
    limits (-20.0 45.0)
           (-30.0 30.0)
           (-30.0 30.0)
  end
  begin
     id 13 
     name thorax
     direction 0.0177047 0.991119 0.131797   
     length 2.17652   
     axis 0 0 0   XYZ
    dof rx ry rz
    limits (-20.0 45.0)
           (-30.0 30.0)
           (-30.0 30.0)
  end
  begin
     id 14 
     name lowerneck
     direction -0.0336893 0.997548 0.0613464   
     length 1.8912   
     axis 0 0 0   XYZ
    dof rx ry rz
    limits (-20.0 45.0)
           (-30.0 30.0)
           (-30.0 30.0)
  end
  begin
     id 15 
     name upperneck
     direction 0.0435909 0.997179 -0.0611028   
     length 1.8829   
     axis 0 0 0   XYZ
    dof rx ry rz
    limits (-20.0 45.0)
           (-30.0 30.0)
           (-30.0 30.0)
  end
  begin
     id 16
     name head
     direction 0.0175076 0.999444 -0.0283782  
     length 1.93197  
     axis 0 0 0   XYZ
    dof rx ry rz
    limits (-20.0 45.0)
           (-30.0 30.0)
           (-30.0 30.0)
  end
  begin
     id 17 
     name lclavicle
     direction 0.919164 0.389875 0.0559876  
     length 3.60004  
     axis 0 0 0   XYZ
    dof ry rz
    limits (-20.0 10.0)
           (0.0 20.0)
  end
  begin
     id 18 
     name lhumerus
     direction 1 -4.48958e-011 6.89191e-027   
     length 5.43301   
     axis 180 -30 -90   XYZ
    dof rx ry rz
    limits (-60.0 90.0)
           (-90.0 90.0)
           (-90.0 90.0)
  end
  begin
     id 19
     name lradius
     direction 1 -4.4897e-011 3.24727e-027   
     length 3.15936   
     axis 180 -30 -90   XYZ
    dof rx
    limits (-10.0 170.0)
  end
  begin
     id 20
     name lwrist
     direction 1 -4.4897e-011 9.00228e-027   
     length 1.57968   
     axis -6.29373e-015 90 90   XYZ
    dof ry
    limits (-180.0 0.0)
 end
  begin
     id 21 
     name lhand
     direction 1 -4.48968e-011 1.80042e-026   
     length 0.712827   
     axis -1.14882e-014 90 90   XYZ
    dof rx rz
    limits (-90.0 90.0)
           (-45.0 45.0)
  end
  begin
     id 22 
     name lfingers
     direction 1 -4.49019e-011 3.60267e-026   
     length 0.574699   
     axis -2.29769e-014 90 90   XYZ
    dof rx
    limits (0.0 90.0)
  end
  begin
     id 23
     name lthumb
     direction 0.707107 -6.3498e-011 0.707107   
     length 0.825157   
     axis -90 45 5.37419e-014   XYZ
    dof rx rz
    limits (-45.0 45.0)
           (-45.0 45.0)
  end
  begin
     id 24 
     name rclavicle
     direction -0.890334 0.455305 -0.00132111   
     length 3.51494  
     axis 0 0 0   XYZ 
    dof ry rz
    limits (-10.0 20.0)
           (-20.0 0.0)
  end
  begin
     id 25 
     name rhumerus
     direction -1 -4.48967e-011 5.07175e-028  
     length 5.34194   
     axis 180 30 90   XYZ
    dof rx ry rz
    limits (-90.0 60.0)
           (-90.0 90.0)
           (-90.0 90.0)
  end
  begin
     id 26 
     name rradius
     direction -1 -4.48955e-011 3.30467e-027   
     length 3.19351   
     axis 180 30 90   XYZ
    dof rx
    limits (-10.0 170.0)
  end
  begin
     id 27 
     name rwrist
     direction -1 -4.48968e-011 9.00208e-027   
     length 1.59676   
     axis -6.29373e-015 -90 -90   XYZ
    dof ry
    limits (-180.0 0.0)
  end
  begin
     id 28
     name rhand
     direction -1 -4.49e-011 1.80099e-026   
     length 0.743862   
     axis -1.14882e-014 -90 -90   XYZ
    dof rx rz
    limits (-90.0 90.0)
           (-45.0 45.0)
  end
  begin
     id 29
     name rfingers
     direction -1 -4.49009e-011 3.6023e-026   
     length 0.599721   
     axis -2.29769e-014 -90 -90   XYZ
    dof rx
    limits (0.0 90.0)
  end
  begin
     id 30
     name rthumb
     direction -0.707107 -6.35025e-011 0.707107   
     length 0.861083   
     axis -90 -45 -5.37419e-014   XYZ
    dof rx rz
    limits (-45.0 45.0)
           (-45.0 45.0)
  end
:hierarchy
  begin
    root lhipjoint rhipjoint lowerback
    lhipjoint lfemur
    lfemur ltibia
    ltibia lfoot
    lfoot ltoes
    rhipjoint rfemur
    rfemur rtibia
    rtibia rfoot
    rfoot rtoes
    lowerback upperback
    upperback thorax
    thorax lowerneck lclavicle rclavicle
    lowerneck upperneck
    upperneck head
    lclavicle lhumerus
    lhumerus lradius
    lradius lwrist
    lwrist lhand lthumb
    lhand lfingers
    rclavicle rhumerus
    rhumerus rradius
    rradius rwrist
    rwrist rhand rthumb
    rhand rfingers
  end

#!OML:ASF H:\Martial Arts Walks\Project 1\Capture day 1\Session 1\male.ASF
:FULLY-SPECIFIED
:DEGREES
42
root -2.6117 16.1277 -39.2332 6.84219 -17.5106 -8.88616
lowerback 7.54068 2.05281 2.28512
upperback -1.91041 3.13559 2.83589
thorax -6.27113 1.51294 1.27872
lowerneck 2.54411 -11.624 -11.1659
upperneck 8.24853 -16.4329 9.91883
head 3.79363 -8.2534 4.12338
rclavicle -4.24902e-015 -3.77691e-015
rhumerus -34.9716 5.06716 -82.3248
rradius 21.7095
rwrist 9.94335
rhand -14.0882 -35.6888
rfingers 7.12502
rthumb 12.0441 -65.3222
lclavicle -4.24902e-015 -3.77691e-015
lhumerus -31.8936 2.64604 81.5519
lradius 24.0408
lwrist -20.2662
lhand -26.542 19.3827
lfingers 7.12502
lthumb 0.0222432 49.3625
rfemur -8.30395 -0.679501 26.2581
rtibia 42.003
rfoot -26.7678 -24.9102
rtoes -17.1737
lfemur -42.5115 0.906408 -0.732695
ltibia 44.2047
lfoot -6.73696 0.358971
ltoes -15.2138
43
root -2.62158 16.124 -39.2421 6.81976 -17.3814 -8.84197
lowerback 7.42411 1.97084 2.35103
upperback -1.89896 3.02425 2.79259
thorax -6.18536 1.45565 1.21497
lowerneck 2.59406 -11.584 -11.1689
upperneck 8.20455 -16.3824 9.943
head 3.76895 -8.22995 4.13945
rclavicle 2.25745e-014 -4.96962e-015
rhumerus -35.3308 4.92353 -82.2053
rradius 21.9792
rwrist 9.72501
rhand -14.0399 -35.7469
rfingers 7.12502
rthumb 12.0906 -65.3775
lclavicle 2.25745e-014 -4.96962e-015
lhumerus -31.8486 2.25348 81.6179
lradius 24.4012
lwrist -20.0314
lhand -26.6134 19.2955
lfingers 7.12502
lthumb -0.0467179 49.2753
rfemur -8.27983 -0.787783 26.2746
rtibia 42.0448
rfoot -26.7653 -25.2625
rtoes -16.7211
lfemur -42.5528 0.851367 -0.744386
ltibia 44.151
lfoot -6.59487 0.175584
ltoes -15.2306
44
root -2.63287 16.1216 -39.2531 6.81584 -17.2843 -8.82116
lowerback 7.35772 1.89095 2.36491
upperback -1.92509 2.91707 2.79401
thorax -6.17358 1.4025 1.22404
lowerneck 2.65921 -11.316 -11.8738
upperneck 8.26947 -16.1193 10.7989
head 3.87479 -8.1008 4.51593
rclavicle 3.11346e-014 5.96354e-016
rhumerus -35.7185 4.9593 -82.113
rradius 22.2695
rwrist 9.41928
rhand -14.0991 -35.7801
rfingers 7.12502
rthumb 12.0336 -65.4142
lclavicle 3.11346e-014 5.96354e-016
lhumerus -31.8085 1.88163 81.7079
lradius 24.6883
lwrist -19.7814
lhand -26.7843 19.3605
lfingers 7.12502
lthumb -0.211769 49.3402
rfemur -8.26995 -0.886593 26.3196
rtibia 42.0788
rfoot -26.8192 -25.5863
rtoes -16.4004
lfemur -42.5986 0.800737 -0.708748
ltibia 44.099
lfoot -6.48335 0.0301073
ltoes -15.0001
45
root -2.64464 16.1174 -39.2636 6.7872 -17.2312 -8.82995
lowerback 7.37671 1.8386 2.3917
upperback -1.94458 2.85202 2.80608
thorax -6.20394 1.36932 1.22901
lowerneck 2.53566 -11.2544 -11.8551
upperneck 8.39241 -16.0329 10.7846
head 3.9192 -8.05341 4.50526
rclavicle 3.15322e-014 5.1684e-014
rhumerus -36.1078 4.91805 -81.9741
rradius 22.6357
rwrist 9.11684
rhand -14.063 -35.7207
rfingers 7.12502
rthumb 12.0684 -65.3527
lclavicle 3.15322e-014 5.1684e-014
lhumerus -31.7347 1.57717 81.7887
lradius 24.9885
lwrist -19.5146
lhand -26.7445 19.5176
lfingers 7.12502
lthumb -0.173363 49.4973
rfemur -8.23398 -1.00828 26.3757
rtibia 42.1313
rfoot -26.7899 -25.9234
rtoes -16.3648
lfemur -42.5997 0.891876 -0.684863
ltibia 44.0472
lfoot -6.43098 -0.188623
ltoes -14.7854
46
root -2.65585 16.1144 -39.2696 6.72636 -17.1831 -8.77987
lowerback 7.38402 1.80793 2.44241
upperback -1.95675 2.81383 2.7564
thorax -6.2156 1.3474 1.15314
lowerneck 2.57983 -11.3228 -11.9058
upperneck 8.37603 -16.119 10.6853
head 3.91339 -8.10138 4.47874
rclavicle -5.55603e-014 -1.51076e-014
rhumerus -36.4662 4.68495 -81.822
rradius 22.9755
rwrist 8.87869
rhand -13.8923 -35.9924
rfingers 7.12502
rthumb 12.233 -65.6147
lclavicle -5.55603e-014 -1.51076e-014
lhumerus -31.6552 1.28848 81.8249
lradius 25.2546
lwrist -19.2782
lhand -23.6066 21.8914
lfingers 7.12502
lthumb 2.85727 51.852
rfemur -8.20542 -1.16003 26.3548
rtibia 42.1855
rfoot -26.6822 -26.1581
rtoes -16.6166
lfemur -42.5672 0.91357 -0.714229
ltibia 43.9886
lfoot -6.35438 -0.341026
ltoes -14.6525
47
root -2.66947 16.1123 -39.2849 6.68938 -16.9758 -8.63146
lowerback 7.41478 1.73447 2.40456
upperback -1.97498 2.70959 2.67762
thorax -6.24938 1.29558 1.10391
lowerneck 2.40658 -11.5199 -11.071
upperneck 8.37323 -16.2692 9.70515
head 3.81076 -8.17116 4.04772
rclavicle -2.37423e-014 -5.84427e-014
rhumerus -36.8021 4.41841 -81.6874
rradius 23.3866
rwrist 8.67051
rhand -13.9198 -35.8009
rfingers 7.12502
rthumb 12.2064 -65.4248
lclavicle -2.37423e-014 -5.84427e-014
lhumerus -31.4601 0.948297 81.8341
lradius 25.5601
lwrist -19.1103
lhand -26.5803 19.6076
lfingers 7.12502
lthumb -0.0147694 49.5874
rfemur -8.30289 -1.47846 26.2772
rtibia 42.2491
rfoot -26.3965 -26.2144
rtoes -17.1923
lfemur -42.6675 0.941265 -0.865599
ltibia 43.9192
lfoot -6.29451 -0.649051
ltoes -14.4037
48
root -2.68047 16.109 -39.2955 6.61618 -16.8483 -8.61454
lowerback 7.427 1.66274 2.4974
upperback -1.94272 2.62111 2.66557
thorax -6.21715 1.24851 1.05052
lowerneck 2.35437 -11.4968 -11.1129
upperneck 8.36689 -16.2339 9.71814
head 3.81802 -8.15302 4.05686
rclavicle 9.18137e-015 2.98177e-015
rhumerus -37.0399 4.20982 -81.5133
rradius 23.7525
rwrist 8.44201
rhand -13.9858 -35.6928
rfingers 7.12502
rthumb 12.1428 -65.3204
lclavicle 9.18137e-015 2.98177e-015
lhumerus -31.2911 0.721033 81.8756
lradius 25.8683
lwrist -18.8468
lhand -26.7962 19.2575
lfingers 7.12502
lthumb -0.223215 49.2372
rfemur -8.31842 -1.68392 26.3087
rtibia 42.3321
rfoot -26.3097 -25.865
rtoes -16.8102
lfemur -42.6554 0.977448 -0.872373
ltibia 43.8415
lfoot -6.21827 -0.908511
ltoes -14.1782
